<svg width="100" height="100" viewBox="0 0 100 100" fill="none" xmlns="http://www.w3.org/2000/svg">
<g clip-path="url(#clip0_520_3788)">
<path fill-rule="evenodd" clip-rule="evenodd" d="M80.1698 45.571C80.4214 43.9899 79.3436 42.5043 77.7625 42.2527C76.1814 42.0012 74.6958 43.079 74.4443 44.6601C73.9734 47.6197 74.5337 51.93 75.3859 55.9528C75.4301 56.1615 75.4742 56.3701 75.5183 56.5785L75.5202 56.5876C76.3485 60.5056 77.1595 64.3423 78.3918 67.3544C80.8503 73.3641 78.772 77.1482 75.575 79.2215C75.576 79.1335 75.5764 79.0452 75.5764 78.9567C75.5764 72.7229 73.2408 67.6694 70.3598 67.6694C69.8416 67.6694 69.3412 67.8328 68.8687 68.1371C67.8507 66.8075 66.482 65.648 64.8573 64.7297C67.8913 62.9309 69.8213 60.2266 69.8213 57.2026C69.8213 56.581 69.7398 55.9728 69.5838 55.3833V44.4434C69.5838 42.9241 67.7726 42.1351 66.6601 43.1697L61.3084 48.1467C59.6723 47.6632 57.8772 47.3962 55.9941 47.3962C54.2828 47.3962 52.6441 47.6167 51.1314 48.0198L45.9161 43.1697C44.8035 42.1351 42.9923 42.9241 42.9923 44.4434V53.8572C42.4582 54.9012 42.1669 56.0278 42.1669 57.2026C42.1669 60.1669 44.0214 62.8239 46.9524 64.6221C45.1468 65.6091 43.6452 66.8901 42.5728 68.3714C42.0075 67.9174 41.396 67.6694 40.7577 67.6694C37.8766 67.6694 35.541 72.7229 35.541 78.9567C35.541 85.1905 37.8766 90.244 40.7577 90.244C40.8065 90.244 40.8552 90.2426 40.9037 90.2397C41.4041 91.0203 43.1383 91.0135 45.2838 91.0052C45.5098 91.0043 45.7403 91.0034 45.9744 91.0034C46.2085 91.0034 46.4389 91.0043 46.6649 91.0052C49.0257 91.0144 50.8885 91.0217 51.1576 89.9801C52.6221 90.1514 54.185 90.244 55.808 90.244C57.431 90.244 58.9941 90.1514 60.4586 89.9801C60.7277 91.0217 62.5905 91.0144 64.9514 91.0052C65.1773 91.0043 65.4078 91.0034 65.6419 91.0034C65.876 91.0034 66.1065 91.0043 66.3324 91.0052H66.3324C68.4028 91.0132 70.0901 91.0198 70.6554 90.3189C80.0449 90.0942 89.8097 79.0507 84.2208 65.3889C83.077 62.593 81.876 58.6145 81.0576 54.7513C80.2151 50.7745 79.8813 47.3845 80.1698 45.571Z" fill="url(#paint0_radial_520_3788)"/>
<path fill-rule="evenodd" clip-rule="evenodd" d="M39.4575 10.479C40.1019 10.479 40.6205 11.0084 40.6158 11.6614L40.1849 73.7668C40.1448 79.2631 47.3531 81.1515 50.0128 76.3415L50.1745 76.0491C50.4906 75.4776 51.2021 75.2705 51.7638 75.5865C52.3255 75.9024 52.5247 76.6219 52.2087 77.1934L52.047 77.4858C48.2052 84.4336 37.7931 81.7059 37.851 73.7668L38.2819 11.6614C38.2867 11.0084 38.813 10.479 39.4575 10.479Z" fill="black"/>
<path d="M57.0867 43.4477C57.1445 42.743 57.1757 42.031 57.1791 41.3126C57.235 29.6477 49.9817 19.6296 39.6191 15.3906C29.2161 19.5766 21.8669 29.5574 21.811 41.2223C21.8076 41.9407 21.8319 42.6529 21.8829 43.3578C27.1545 41.677 33.1467 40.7342 39.4975 40.7504C45.8484 40.7666 51.8314 41.74 57.0867 43.4477Z" fill="url(#paint1_linear_520_3788)"/>
<path fill-rule="evenodd" clip-rule="evenodd" d="M57.1793 41.3124C57.1758 42.0308 57.1447 42.7429 57.0869 43.4476C51.8315 41.7399 45.8486 40.7665 39.4977 40.7503C37.1161 40.7442 34.785 40.873 32.5234 41.125C34.7849 40.873 37.116 40.7442 39.4975 40.7503C45.8528 40.7665 51.8398 41.7413 57.0977 43.4512C59.587 42.6491 62.2547 42.2173 65.0279 42.2244C67.725 42.2313 70.3183 42.6528 72.7414 43.4254C72.7545 43.1306 72.7619 42.8347 72.7633 42.5376C72.8348 27.6232 58.0066 15.4887 39.6197 15.3907C49.982 19.6298 57.2352 29.6477 57.1793 41.3124ZM39.6188 15.3906C29.2161 19.5768 21.8671 29.5574 21.8112 41.2221C21.8077 41.9405 21.832 42.6527 21.8831 43.3577C21.8793 43.3589 21.8756 43.36 21.8719 43.3612C19.3903 42.5465 16.7268 42.1011 13.9536 42.094C11.1713 42.0869 8.4952 42.5216 5.9988 43.3287C5.98658 43.0095 5.98119 42.689 5.98273 42.3671C6.05438 27.4211 21.0618 15.3431 39.5027 15.3902C39.5414 15.3903 39.5801 15.3904 39.6188 15.3906Z" fill="url(#paint2_linear_520_3788)"/>
</g>
<defs>
<radialGradient id="paint0_radial_520_3788" cx="0" cy="0" r="1" gradientUnits="userSpaceOnUse" gradientTransform="translate(43.9278 40.7123) rotate(63.0228) scale(54.9092 56.6269)">
<stop stop-color="#A0E34C"/>
<stop offset="0.425"/>
<stop offset="0.825"/>
<stop offset="0.965" stop-color="#3F0000"/>
</radialGradient>
<linearGradient id="paint1_linear_520_3788" x1="21.8008" y1="43.3576" x2="57.9247" y2="43.5308" gradientUnits="userSpaceOnUse">
<stop stop-color="#1D8854"/>
<stop offset="0.66788" stop-color="#11814B"/>
<stop offset="1" stop-color="#0B7240"/>
</linearGradient>
<linearGradient id="paint2_linear_520_3788" x1="6.56227" y1="42.9558" x2="72.7609" y2="43.1996" gradientUnits="userSpaceOnUse">
<stop stop-color="#1EAD68"/>
<stop offset="0.47" stop-color="#0C5532"/>
<stop offset="0.496511" stop-color="#11814B"/>
<stop offset="0.63" stop-color="#009851"/>
<stop offset="1" stop-color="#19C95F"/>
</linearGradient>
<clipPath id="clip0_520_3788">
<rect width="100" height="100" fill="white"/>
</clipPath>
</defs>
</svg>
