<svg width="40" height="40" viewBox="0 0 40 40" fill="none" xmlns="http://www.w3.org/2000/svg">
<g filter="url(#filter0_d_493_1637)">
<path fill-rule="evenodd" clip-rule="evenodd" d="M32.1483 7.58554C32.9293 8.36659 32.9293 9.63292 32.1483 10.414L31.441 11.1213L32.1481 11.8284C32.9291 12.6094 32.9291 13.8757 32.1481 14.6568C31.367 15.4378 30.1007 15.4378 29.3196 14.6568L28.6125 13.9497L27.0707 15.4915C30.0316 19.7797 29.6039 25.7014 25.7877 29.5176C21.4897 33.8156 14.5214 33.8156 10.2235 29.5176C5.92552 25.2197 5.92552 18.2514 10.2235 13.9534C14.0372 10.1397 19.9535 9.71005 24.241 12.6644L25.7841 11.1213L25.077 10.4142C24.2959 9.63311 24.2959 8.36678 25.077 7.58573C25.858 6.80468 27.1244 6.80468 27.9054 7.58573L28.6126 8.29285L29.3199 7.58554C30.1009 6.80449 31.3672 6.80449 32.1483 7.58554ZM13.0519 26.6892C15.7877 29.4251 20.2234 29.4251 22.9592 26.6892C25.6951 23.9534 25.6951 19.5177 22.9592 16.7819C20.2234 14.046 15.7877 14.046 13.0519 16.7819C10.316 19.5177 10.316 23.9534 13.0519 26.6892Z" fill="#FE72BD"/>
<path d="M32.5018 10.7675C33.4782 9.79121 33.4782 8.2083 32.5018 7.23199C31.5255 6.25568 29.9426 6.25568 28.9663 7.23199L28.6126 7.58575L28.259 7.23218C27.2827 6.25586 25.6998 6.25586 24.7234 7.23217C23.7471 8.20849 23.7471 9.7914 24.7234 10.7677L25.077 11.1213L24.1763 12.022C19.7262 9.18928 13.755 9.71482 9.8699 13.5999C5.3767 18.0931 5.3767 25.378 9.8699 29.8712C14.3631 34.3644 21.648 34.3644 26.1412 29.8712C30.0289 25.9836 30.5525 20.0069 27.7135 15.5559L28.6125 14.6568L28.9661 15.0104C29.9424 15.9867 31.5253 15.9867 32.5016 15.0104C33.4779 14.034 33.4779 12.4511 32.5016 11.4748L32.1481 11.1213L32.5018 10.7675ZM22.6057 26.3357C20.0651 28.8762 15.946 28.8762 13.4054 26.3357C10.8649 23.7951 10.8649 19.676 13.4054 17.1354C15.946 14.5948 20.0651 14.5948 22.6057 17.1354C25.1463 19.676 25.1463 23.7951 22.6057 26.3357Z" stroke="white" stroke-linecap="round" stroke-linejoin="round"/>
</g>
<defs>
<filter id="filter0_d_493_1637" x="2" y="3.99976" width="35.7344" height="35.7415" filterUnits="userSpaceOnUse" color-interpolation-filters="sRGB">
<feFlood flood-opacity="0" result="BackgroundImageFix"/>
<feColorMatrix in="SourceAlpha" type="matrix" values="0 0 0 0 0 0 0 0 0 0 0 0 0 0 0 0 0 0 127 0" result="hardAlpha"/>
<feOffset dy="2"/>
<feGaussianBlur stdDeviation="2"/>
<feComposite in2="hardAlpha" operator="out"/>
<feColorMatrix type="matrix" values="0 0 0 0 0 0 0 0 0 0 0 0 0 0 0 0 0 0 0.25 0"/>
<feBlend mode="normal" in2="BackgroundImageFix" result="effect1_dropShadow_493_1637"/>
<feBlend mode="normal" in="SourceGraphic" in2="effect1_dropShadow_493_1637" result="shape"/>
</filter>
</defs>
</svg>
