<svg width="44" height="41" viewBox="0 0 44 41" fill="none" xmlns="http://www.w3.org/2000/svg">
<g filter="url(#filter0_d_503_2476)">
<path fill-rule="evenodd" clip-rule="evenodd" d="M26.9198 7.10539L37.3757 25.2154C39.5619 29.0021 36.8291 33.7355 32.4566 33.7355H11.5449C7.17246 33.7355 4.43966 29.0021 6.6259 25.2154L17.0817 7.10539C19.268 3.3187 24.7336 3.31872 26.9198 7.10539Z" fill="#FFBF1B"/>
<path d="M37.8087 24.9654L27.3528 6.85539C24.9741 2.73539 19.0274 2.73537 16.6487 6.85539L6.19289 24.9654C3.81419 29.0854 6.78756 34.2355 11.5449 34.2355H32.4566C37.214 34.2355 40.1874 29.0855 37.8087 24.9654Z" stroke="white" stroke-linecap="round" stroke-linejoin="round"/>
</g>
<path fill-rule="evenodd" clip-rule="evenodd" d="M21.9994 11.3452C23.2088 11.3452 24.1893 12.3257 24.1893 13.5351V20.1752C24.1893 21.3846 23.2088 22.365 21.9994 22.365C20.79 22.365 19.8096 21.3846 19.8096 20.1752V13.5351C19.8096 12.3257 20.79 11.3452 21.9994 11.3452Z" fill="#B11721"/>
<path d="M24.6098 26.8064C24.6098 28.2479 23.4413 29.4165 21.9997 29.4165C20.5582 29.4165 19.3896 28.2479 19.3896 26.8064C19.3896 25.3649 20.5582 24.1963 21.9997 24.1963C23.4413 24.1963 24.6098 25.3649 24.6098 26.8064Z" fill="#B11721"/>
<defs>
<filter id="filter0_d_503_2476" x="0.854492" y="1.26538" width="42.292" height="39.47" filterUnits="userSpaceOnUse" color-interpolation-filters="sRGB">
<feFlood flood-opacity="0" result="BackgroundImageFix"/>
<feColorMatrix in="SourceAlpha" type="matrix" values="0 0 0 0 0 0 0 0 0 0 0 0 0 0 0 0 0 0 127 0" result="hardAlpha"/>
<feOffset dy="2"/>
<feGaussianBlur stdDeviation="2"/>
<feComposite in2="hardAlpha" operator="out"/>
<feColorMatrix type="matrix" values="0 0 0 0 0 0 0 0 0 0 0 0 0 0 0 0 0 0 0.25 0"/>
<feBlend mode="normal" in2="BackgroundImageFix" result="effect1_dropShadow_503_2476"/>
<feBlend mode="normal" in="SourceGraphic" in2="effect1_dropShadow_503_2476" result="shape"/>
</filter>
</defs>
</svg>
