<svg width="40" height="40" viewBox="0 0 40 40" fill="none" xmlns="http://www.w3.org/2000/svg">
<g filter="url(#filter0_d_493_1638)">
<path fill-rule="evenodd" clip-rule="evenodd" d="M32.6568 9.19689C32.5972 8.18477 31.7898 7.37732 30.7777 7.31778L25.4351 7.00351C24.3324 6.93865 23.386 7.77995 23.3211 8.88262C23.2562 9.98528 24.0975 10.9317 25.2002 10.9966L26.0968 11.0493L24.1674 12.9788C19.8978 10.0384 14.0074 10.4669 10.2102 14.2642C5.92995 18.5444 5.92995 25.484 10.2102 29.7642C14.4904 34.0444 21.4299 34.0444 25.7102 29.7642C29.5073 25.967 29.9358 20.0768 26.9957 15.8072L28.9252 13.8778L28.9779 14.7744C29.0428 15.877 29.9893 16.7183 31.0919 16.6535C32.1946 16.5886 33.0359 15.6421 32.971 14.5395L32.6568 9.19689ZM22.8817 26.9357C20.1636 29.6538 15.7567 29.6538 13.0386 26.9357C10.3205 24.2176 10.3205 19.8107 13.0386 17.0926C15.7567 14.3745 20.1636 14.3745 22.8817 17.0926C25.5998 19.8107 25.5998 24.2176 22.8817 26.9357Z" fill="#87BEFE"/>
<path d="M33.1559 9.16753C33.0815 7.90238 32.0722 6.89306 30.807 6.81864L25.4644 6.50438C24.0861 6.4233 22.903 7.47493 22.822 8.85326C22.745 10.1618 23.6889 11.2943 24.964 11.4751L24.1026 12.3364C19.6705 9.51772 13.7252 10.042 9.8566 13.9106C5.38113 18.3861 5.38113 25.6422 9.8566 30.1177C14.3321 34.5932 21.5882 34.5932 26.0637 30.1177C29.9322 26.2492 30.4566 20.3041 27.6381 15.872L28.4995 15.0106C28.6803 16.2857 29.8128 17.2296 31.1213 17.1526C32.4996 17.0715 33.5513 15.8884 33.4702 14.5101L33.1559 9.16753ZM22.5282 26.5822C20.0053 29.105 15.915 29.105 13.3921 26.5822C10.8693 24.0593 10.8693 19.969 13.3921 17.4461C15.915 14.9233 20.0053 14.9233 22.5282 17.4461C25.051 19.969 25.051 24.0593 22.5282 26.5822Z" stroke="white" stroke-linecap="round" stroke-linejoin="round"/>
</g>
<defs>
<filter id="filter0_d_493_1638" x="2" y="4" width="35.9746" height="35.9744" filterUnits="userSpaceOnUse" color-interpolation-filters="sRGB">
<feFlood flood-opacity="0" result="BackgroundImageFix"/>
<feColorMatrix in="SourceAlpha" type="matrix" values="0 0 0 0 0 0 0 0 0 0 0 0 0 0 0 0 0 0 127 0" result="hardAlpha"/>
<feOffset dy="2"/>
<feGaussianBlur stdDeviation="2"/>
<feComposite in2="hardAlpha" operator="out"/>
<feColorMatrix type="matrix" values="0 0 0 0 0 0 0 0 0 0 0 0 0 0 0 0 0 0 0.25 0"/>
<feBlend mode="normal" in2="BackgroundImageFix" result="effect1_dropShadow_493_1638"/>
<feBlend mode="normal" in="SourceGraphic" in2="effect1_dropShadow_493_1638" result="shape"/>
</filter>
</defs>
</svg>
