<svg width="40" height="40" viewBox="0 0 40 40" fill="none" xmlns="http://www.w3.org/2000/svg">
<g filter="url(#filter0_d_493_1639)">
<path d="M22 8.5C22 7.11929 20.8807 6 19.5 6C18.1193 6 17 7.11929 17 8.5V17H8.5C7.11929 17 6 18.1193 6 19.5C6 20.8807 7.11929 22 8.5 22H17V30.5C17 31.8807 18.1193 33 19.5 33C20.8807 33 22 31.8807 22 30.5V22H30.5C31.8807 22 33 20.8807 33 19.5C33 18.1193 31.8807 17 30.5 17H22V8.5Z" fill="#E90000"/>
<path d="M22.5 8.5C22.5 6.84315 21.1569 5.5 19.5 5.5C17.8431 5.5 16.5 6.84315 16.5 8.5V16.5H8.5C6.84315 16.5 5.5 17.8431 5.5 19.5C5.5 21.1569 6.84315 22.5 8.5 22.5H16.5V30.5C16.5 32.1569 17.8431 33.5 19.5 33.5C21.1569 33.5 22.5 32.1569 22.5 30.5V22.5H30.5C32.1569 22.5 33.5 21.1569 33.5 19.5C33.5 17.8431 32.1569 16.5 30.5 16.5H22.5V8.5Z" stroke="white" stroke-linecap="round" stroke-linejoin="round"/>
</g>
<defs>
<filter id="filter0_d_493_1639" x="1" y="3" width="37" height="37" filterUnits="userSpaceOnUse" color-interpolation-filters="sRGB">
<feFlood flood-opacity="0" result="BackgroundImageFix"/>
<feColorMatrix in="SourceAlpha" type="matrix" values="0 0 0 0 0 0 0 0 0 0 0 0 0 0 0 0 0 0 127 0" result="hardAlpha"/>
<feOffset dy="2"/>
<feGaussianBlur stdDeviation="2"/>
<feComposite in2="hardAlpha" operator="out"/>
<feColorMatrix type="matrix" values="0 0 0 0 0 0 0 0 0 0 0 0 0 0 0 0 0 0 0.25 0"/>
<feBlend mode="normal" in2="BackgroundImageFix" result="effect1_dropShadow_493_1639"/>
<feBlend mode="normal" in="SourceGraphic" in2="effect1_dropShadow_493_1639" result="shape"/>
</filter>
</defs>
</svg>
