<svg width="43" height="41" viewBox="0 0 43 41" fill="none" xmlns="http://www.w3.org/2000/svg">
<g filter="url(#filter0_d_493_1641)">
<path fill-rule="evenodd" clip-rule="evenodd" d="M12.3819 27.2113C13.3818 25.4794 15.3712 24.675 17.2237 25.0998L19.8054 20.6282C20.0053 20.2819 19.9112 19.8465 19.6004 19.6112C19.4755 19.5273 19.3253 19.4784 19.1636 19.4784L14.0003 19.4784C13.442 21.2953 11.7506 22.616 9.75067 22.616C7.29576 22.616 5.30566 20.626 5.30566 18.171C5.30566 15.7161 7.29576 13.726 9.75067 13.726C11.9379 13.726 13.7562 15.3058 14.1267 17.3866L19.8654 17.3866L25.6372 7.38956C26.6481 5.63862 28.8868 5.03878 30.6377 6.04968L24.0923 17.3866L37.2051 17.3866C37.2051 19.4084 35.5663 21.0472 33.5445 21.0472L21.9788 21.0472L19.0985 26.0361C20.7155 27.3973 21.1746 29.762 20.0809 31.6563C18.8535 33.7824 16.1349 34.5108 14.0089 33.2833C11.8829 32.0559 11.1545 29.3373 12.3819 27.2113ZM16.9539 28.1824C16.2628 27.7834 15.379 28.0202 14.98 28.7113C14.581 29.4025 14.8178 30.2862 15.5089 30.6852C16.2001 31.0843 17.0838 30.8475 17.4828 30.1563C17.8819 29.4652 17.6451 28.5814 16.9539 28.1824ZM11.1957 18.171C11.1957 18.9691 10.5487 19.616 9.75067 19.616C8.95262 19.616 8.30567 18.9691 8.30567 18.171C8.30567 17.373 8.95262 16.726 9.75067 16.726C10.5487 16.726 11.1957 17.373 11.1957 18.171Z" fill="#CCCCCC"/>
<path d="M24.9583 16.8866L31.0707 6.29968C31.137 6.18483 31.155 6.04836 31.1206 5.92027C31.0863 5.79218 31.0025 5.68297 30.8877 5.61666C28.8976 4.46769 26.3532 5.14948 25.2042 7.13956L19.5767 16.8866L14.5271 16.8866C13.9614 14.7783 12.0378 13.226 9.75067 13.226C7.01962 13.226 4.80566 15.44 4.80566 18.171C4.80566 20.9021 7.01962 23.116 9.75067 23.116C11.8445 23.116 13.6332 21.8151 14.3548 19.9784L19.1636 19.9784C19.2177 19.9784 19.2672 19.9931 19.3096 20.0186C19.413 20.1054 19.4423 20.2572 19.3724 20.3782L16.968 24.5428C15.0167 24.2495 12.9958 25.1481 11.9489 26.9613C10.5834 29.3265 11.3938 32.3508 13.7589 33.7163C16.1241 35.0819 19.1484 34.2715 20.5139 31.9063C21.6575 29.9255 21.275 27.4834 19.7318 25.9393L22.2675 21.5472L33.5445 21.5472C35.8424 21.5472 37.7051 19.6846 37.7051 17.3866C37.7051 17.254 37.6524 17.1268 37.5586 17.0331C37.4649 16.9393 37.3377 16.8866 37.2051 16.8866L24.9583 16.8866ZM15.413 28.9613C15.674 28.5093 16.2519 28.3545 16.7039 28.6154C17.1559 28.8764 17.3108 29.4543 17.0498 29.9063C16.7889 30.3583 16.2109 30.5132 15.7589 30.2522C15.3069 29.9913 15.1521 29.4133 15.413 28.9613ZM10.6957 18.171C10.6957 18.693 10.2726 19.116 9.75067 19.116C9.22876 19.116 8.80567 18.693 8.80567 18.171C8.80567 17.6491 9.22876 17.226 9.75067 17.226C10.2726 17.226 10.6957 17.6491 10.6957 18.171Z" stroke="white" stroke-linecap="round" stroke-linejoin="round"/>
</g>
<defs>
<filter id="filter0_d_493_1641" x="0.305664" y="2.55835" width="41.8994" height="38.3213" filterUnits="userSpaceOnUse" color-interpolation-filters="sRGB">
<feFlood flood-opacity="0" result="BackgroundImageFix"/>
<feColorMatrix in="SourceAlpha" type="matrix" values="0 0 0 0 0 0 0 0 0 0 0 0 0 0 0 0 0 0 127 0" result="hardAlpha"/>
<feOffset dy="2"/>
<feGaussianBlur stdDeviation="2"/>
<feComposite in2="hardAlpha" operator="out"/>
<feColorMatrix type="matrix" values="0 0 0 0 0 0 0 0 0 0 0 0 0 0 0 0 0 0 0.25 0"/>
<feBlend mode="normal" in2="BackgroundImageFix" result="effect1_dropShadow_493_1641"/>
<feBlend mode="normal" in="SourceGraphic" in2="effect1_dropShadow_493_1641" result="shape"/>
</filter>
</defs>
</svg>
